<svg xmlns="http://www.w3.org/2000/svg" xmlns:xlink="http://www.w3.org/1999/xlink" viewBox="0,0,256,256" width="64px" height="64px"><g fill="#000000" fill-rule="nonzero" stroke="none" stroke-width="1" stroke-linecap="butt" stroke-linejoin="miter" stroke-miterlimit="10" stroke-dasharray="" stroke-dashoffset="0" font-family="none" font-weight="none" font-size="none" text-anchor="none" style="mix-blend-mode: normal"><g transform="scale(4,4)"><path d="M29.98438,-0.01562c-0.55228,0.00755 -0.99388,0.46139 -0.98633,1.01367v2c-0.0051,0.36064 0.18438,0.69608 0.49587,0.87789c0.3115,0.18181 0.69676,0.18181 1.00825,0c0.3115,-0.18181 0.50097,-0.51725 0.49587,-0.87789v-2c0.00369,-0.26996 -0.10192,-0.52994 -0.29283,-0.72084c-0.19091,-0.19091 -0.45089,-0.29652 -0.72084,-0.29283zM35.16211,0.87891c-0.40111,0.01797 -0.75258,0.27408 -0.89258,0.65039l-0.72461,1.86328c-0.14279,0.33566 -0.09151,0.72245 0.13382,1.0093c0.22534,0.28685 0.58898,0.42827 0.94891,0.36902c0.35993,-0.05925 0.65905,-0.30976 0.78055,-0.65371l0.72656,-1.86328c0.12814,-0.31586 0.08657,-0.67524 -0.11028,-0.95351c-0.19685,-0.27828 -0.52188,-0.43713 -0.86238,-0.42149zM24.70508,1.41797c-0.35286,-0.0039 -0.68166,0.17844 -0.86522,0.47982c-0.18356,0.30139 -0.1947,0.6772 -0.02931,0.98893l0.91211,1.7793c0.16326,0.31789 0.48371,0.52452 0.84064,0.54205c0.35693,0.01753 0.69609,-0.1567 0.88971,-0.45706c0.19362,-0.30036 0.21228,-0.6812 0.04895,-0.99905l-0.91016,-1.77734c-0.16709,-0.33779 -0.50988,-0.55298 -0.88672,-0.55664zM39.67188,3.88477c-0.26018,0.00312 -0.5089,0.10751 -0.69336,0.29102l-1.43555,1.39258c-0.27318,0.24459 -0.39061,0.61905 -0.30601,0.97583c0.0846,0.35678 0.35766,0.63866 0.71157,0.73455c0.35391,0.09589 0.73192,-0.00957 0.98507,-0.27484l1.4375,-1.39258c0.29911,-0.28295 0.39425,-0.7203 0.23969,-1.10194c-0.15455,-0.38163 -0.5272,-0.62954 -0.93891,-0.62463zM20.48828,4.88281c-0.42442,0.01835 -0.79093,0.30282 -0.91401,0.70942c-0.12308,0.4066 0.02414,0.84658 0.36713,1.09722l1.59961,1.20117c0.44226,0.33115 1.06924,0.24109 1.40039,-0.20117c0.33115,-0.44226 0.24109,-1.06924 -0.20117,-1.40039l-1.59961,-1.19922c-0.18633,-0.14358 -0.41731,-0.21689 -0.65234,-0.20703zM30.51367,5.99805c-2.92399,0 -5.59142,1.6888 -6.84961,4.33398l-8.07422,16.98828c-0.28931,-0.47763 -0.54527,-0.95902 -0.73437,-1.43945c-0.0013,-0.00196 -0.0026,-0.00391 -0.00391,-0.00586c-1.19547,-2.97974 -4.03196,-4.81509 -7.03711,-4.87109c-1.00171,-0.01867 -2.02112,0.16006 -3.00586,0.56055c-0.0013,0.00065 -0.00261,0.0013 -0.00391,0.00195c-3.9382,1.61515 -5.8363,6.16837 -4.25781,10.14258c0.00065,0.00065 0.0013,0.0013 0.00195,0.00195c1.60505,4.03041 4.38622,7.68593 7.85156,10.71484l-2.63086,5.53516c-1.74925,3.67468 -0.4347,8.21335 3.19531,10.14844c0.0013,0.00065 0.0026,0.0013 0.00391,0.00195c3.82728,2.02776 8.57096,0.43227 10.41797,-3.4375c0,-0.00065 0,-0.0013 0,-0.00195l2.34766,-4.93555c2.68545,0.78516 5.44512,1.22698 8.18945,1.24609c0.06251,0.01121 0.12595,0.01644 0.18945,0.01563c0.06943,0.00134 0.13882,-0.00455 0.20703,-0.01758c3.03831,-0.02127 6.0326,-0.51358 8.91016,-1.39258l2.41211,5.07617c1.25654,2.64656 3.92884,4.33583 6.85938,4.33008c0.67658,-0.00017 1.35472,-0.09257 2.01758,-0.27734c4.57534,-1.26292 6.74107,-6.51908 4.71289,-10.7793v-0.00195l-2.78711,-5.86719c5.68419,-5.09372 9.87959,-11.97449 11.40234,-19.69727c0,-0.00065 0,-0.0013 0,-0.00195c0.82891,-4.23118 -1.87414,-8.37239 -6.04102,-9.2168c-4.17288,-0.84491 -8.24888,1.92833 -9.07617,6.15039c-0.5477,2.78437 -1.76368,5.4124 -3.43945,7.71289l-7.92773,-16.68359c-1.25635,-2.64272 -3.92218,-4.33168 -6.84766,-4.33398c-0.00065,0 -0.0013,0 -0.00195,0zM30.51367,7.99805c2.15853,0.0017 4.11728,1.24208 5.04492,3.19336l17.86914,37.60352c0,0.00065 0,0.0013 0,0.00195c1.52036,3.19147 -0.08339,7.06528 -3.44141,7.99219c-0.00065,0 -0.0013,0 -0.00195,0c-0.48991,0.1367 -0.98823,0.20508 -1.48437,0.20508c-0.00065,0 -0.0013,0 -0.00195,0c-2.16146,0.0042 -4.12137,-1.23406 -5.04883,-3.1875c-0.00065,0 -0.0013,0 -0.00195,0l-2.66016,-5.59961c-0.03116,-0.18102 -0.11158,-0.34995 -0.23242,-0.48828l-8.44922,-17.7832v-0.00195c-0.60345,-1.27591 -2.55498,-1.27442 -3.16211,-0.00195l-2.625,5.51758c-3.50922,-1.00954 -7.07454,-3.59997 -9.38086,-6.30078l8.5332,-17.95703c0.92981,-1.95481 2.88696,-3.19336 5.04297,-3.19336zM42.54688,8.34766c-0.15723,-0.00095 -0.31247,0.03518 -0.45312,0.10547l-1.80469,0.86328c-0.33098,0.14917 -0.55513,0.46598 -0.58564,0.82774c-0.03051,0.36175 0.13742,0.71163 0.43874,0.91412c0.30132,0.20249 0.68871,0.22579 1.01213,0.06088l1.80273,-0.86328c0.42503,-0.19606 0.65723,-0.66069 0.55887,-1.11831c-0.09836,-0.45762 -0.50097,-0.7858 -0.96902,-0.7899zM17.99414,9.42969c-0.46122,0.01872 -0.84971,0.35068 -0.94015,0.80333c-0.09044,0.45266 0.14067,0.9084 0.55929,1.10292l1.80273,0.86523c0.49835,0.23893 1.09603,0.02862 1.33496,-0.46973c0.23893,-0.49835 0.02862,-1.09603 -0.46973,-1.33496l-1.80273,-0.86328c-0.15022,-0.07457 -0.31679,-0.11017 -0.48437,-0.10352zM44.70898,12.85547c-0.15723,-0.00095 -0.31247,0.03518 -0.45312,0.10547l-1.80273,0.86328c-0.33611,0.14563 -0.56572,0.46336 -0.59848,0.8282c-0.03277,0.36484 0.13654,0.7184 0.44133,0.92159c0.30478,0.20319 0.69627,0.2235 1.02044,0.05294l1.80469,-0.86328c0.42535,-0.19622 0.65751,-0.66138 0.55863,-1.11925c-0.09888,-0.45787 -0.50232,-0.78576 -0.97074,-0.78895zM15.83789,13.92773c-0.46202,0.01467 -0.85378,0.34407 -0.94755,0.7967c-0.09378,0.45264 0.13487,0.91056 0.55302,1.10759l1.79688,0.87695c0.32248,0.16845 0.711,0.14849 1.01451,-0.05212c0.30352,-0.20061 0.47414,-0.55023 0.44555,-0.91293c-0.0286,-0.3627 -0.2519,-0.68126 -0.58311,-0.83183l-1.79688,-0.87695c-0.14929,-0.0756 -0.31516,-0.11254 -0.48242,-0.10742zM56.25781,15c0.37957,-0.00152 0.7652,0.0349 1.15234,0.11328c3.08713,0.6256 5.0997,3.68027 4.47461,6.87109h0.00195c-1.39237,7.06152 -5.1823,13.41391 -10.33984,18.19336l-5.28906,-11.12695c0.00065,-0.00065 0.0013,-0.0013 0.00195,-0.00195c2.16782,-2.70665 3.75423,-5.90566 4.43359,-9.35937c0,-0.00065 0,-0.0013 0,-0.00195c0.54487,-2.78069 2.90747,-4.67687 5.56445,-4.6875zM7.79297,22.99609c2.22257,0.03458 4.30613,1.38927 5.20313,3.625l-0.00195,-0.00781c0.39585,1.0057 0.95741,1.96675 1.63672,2.875c2.68933,3.60166 7.28592,7.08871 12.08789,8.125c1.14164,0.24592 2.28748,0.375 3.40625,0.375c1.15166,0 2.29953,-0.1243 3.42969,-0.34766l4.80859,10.12109c-2.67647,0.79167 -5.44746,1.23633 -8.25,1.23633c-2.90514,0 -5.86603,-0.50468 -8.72852,-1.44141c-4.17967,-1.36641 -8.057,-3.54168 -11.41797,-6.41016c-3.38212,-2.89425 -6.05731,-6.40099 -7.56055,-10.17578c-1.18317,-2.9789 0.23022,-6.351 3.15625,-7.55273c0.73276,-0.29801 1.48961,-0.4334 2.23047,-0.42187zM30.52344,24.98633c-2.06997,0.0011 -4.13927,1.0761 -5.15625,3.21875l-1.37891,2.89844c-0.15358,0.32273 -0.12329,0.70289 0.07945,0.99724c0.20274,0.29435 0.54712,0.45816 0.9034,0.42972c0.35628,-0.02844 0.67032,-0.24481 0.8238,-0.56759l1.37891,-2.90039c1.37204,-2.89071 5.32256,-2.91119 6.69922,0.00195c0.00065,0.00065 0.0013,0.0013 0.00195,0.00195l1.12891,2.38281c0.14472,0.33591 0.46126,0.56602 0.82543,0.60005c0.36417,0.03403 0.71787,-0.13345 0.92232,-0.43673c0.20445,-0.30328 0.22703,-0.69397 0.05889,-1.01879l-1.12891,-2.38281v-0.00195c-1.01798,-2.15247 -3.08873,-3.22373 -5.1582,-3.22266zM5.19531,28.84961c-0.33537,-0.00257 -0.6497,0.16312 -0.8371,0.44127c-0.18739,0.27814 -0.22289,0.6317 -0.09454,0.94155c0.74349,1.87035 1.8094,3.68092 3.14063,5.38477c0.21636,0.29169 0.57385,0.44316 0.93392,0.39571c0.36006,-0.04745 0.6661,-0.28637 0.79951,-0.62415c0.13341,-0.33779 0.07321,-0.72135 -0.15726,-1.00203c-1.22677,-1.57016 -2.19292,-3.22093 -2.85742,-4.89258c-0.14668,-0.38565 -0.51514,-0.64163 -0.92773,-0.64453zM30.52344,31.26367l2.13281,4.49023c-0.84132,0.1386 -1.6866,0.23438 -2.53125,0.23438c-0.58189,0 -1.18094,-0.05465 -1.78516,-0.13477zM37.55664,33.61719c-0.33532,0.01941 -0.63851,0.20584 -0.80714,0.49633c-0.16863,0.29048 -0.18018,0.64622 -0.03075,0.94703l1.89063,3.97461c0.15348,0.32278 0.46752,0.53915 0.8238,0.56759c0.35628,0.02844 0.70066,-0.13538 0.9034,-0.42972c0.20274,-0.29435 0.23302,-0.6745 0.07945,-0.99724l-1.89258,-3.97461c-0.1562,-0.34228 -0.49129,-0.56794 -0.86719,-0.58398c-0.03318,-0.00165 -0.06643,-0.00165 -0.09961,0zM10.85547,36.94141c-0.40699,0.01141 -0.76644,0.2684 -0.90888,0.64982c-0.14244,0.38142 -0.03944,0.81112 0.26044,1.08651c0.34275,0.32406 0.69472,0.6412 1.05859,0.95117v-0.00195c3.15977,2.69835 6.80763,4.74464 10.73828,6.0293c1.95088,0.64028 3.93651,1.05992 5.9043,1.24023c0.3559,0.03251 0.70211,-0.12734 0.90818,-0.41933c0.20607,-0.29199 0.2407,-0.67174 0.09083,-0.99619c-0.14987,-0.32444 -0.46146,-0.54427 -0.81737,-0.57666c-1.80822,-0.16569 -3.64777,-0.55271 -5.46289,-1.14844c-3.68269,-1.20338 -7.10073,-3.11918 -10.0625,-5.64844c-0.00065,-0.00065 -0.0013,-0.0013 -0.00195,-0.00195c-0.33812,-0.28803 -0.66518,-0.58092 -0.98242,-0.88086c-0.19341,-0.18833 -0.45475,-0.29047 -0.72461,-0.2832zM9.99023,43.74023c2.97414,2.30357 6.29049,4.11452 9.82227,5.38086l-2.23242,4.69336c-1.36955,2.86577 -4.82829,4.03569 -7.67383,2.5293h-0.00195c-2.65695,-1.41734 -3.6386,-4.7746 -2.33008,-7.52344c0.00065,0 0.0013,0 0.00195,0zM34.18555,44.66406c-0.05682,-0.00158 -0.11366,0.00169 -0.16992,0.00977l-1.83203,0.23633c-0.09325,0.0081 -0.17854,0.01704 -0.26172,0.02344c-0.3604,0.02182 -0.68107,0.2362 -0.83897,0.56091c-0.1579,0.32471 -0.12852,0.70932 0.07687,1.00627c0.20539,0.29695 0.5549,0.46014 0.91444,0.42696c0.09882,-0.0076 0.19245,-0.0175 0.2832,-0.02539c0.0137,-0.00102 0.02737,-0.00232 0.04102,-0.00391l1.87305,-0.24023c0.5241,-0.0568 0.91412,-0.51066 0.89142,-1.03734c-0.0227,-0.52668 -0.45032,-0.94531 -0.97736,-0.9568z"></path></g></g></svg>