<svg xmlns="http://www.w3.org/2000/svg"  viewBox="0 0 50 50" width="50px" height="50px"><path d="M 25.298828 3.0039062 C 15.440526 3.0039062 7.0382565 9.1798598 3.9960938 18.650391 C 3.5631283 19.997495 3.2785902 21.336895 3.1269531 22.658203 C 3.1236346 22.666238 3.1205006 22.673595 3.1171875 22.681641 L 3.1230469 22.683594 C 2.0603359 32.047029 7.6713052 40.494354 14.443359 44.271484 C 15.623513 44.930601 19.709769 46.954454 25.291016 46.988281 A 1.0001 1.0001 0 0 0 25.421875 47 C 30.297701 47 37.297663 45.439837 43.257812 37.730469 A 1.0001 1.0001 0 0 0 43.275391 37.705078 C 43.307921 37.660218 43.340194 37.617338 43.371094 37.572266 A 1.0001 1.0001 0 0 0 42.148438 36.087891 C 41.983902 36.159191 41.819165 36.23489 41.664062 36.304688 A 1.0001 1.0001 0 0 0 41.662109 36.306641 C 41.303429 36.469307 40.946029 36.562174 40.226562 36.857422 A 1.0001 1.0001 0 0 0 40.224609 36.857422 C 39.022421 37.352238 37.052295 37.6875 34.964844 37.6875 C 33.217997 37.6875 31.504947 37.458438 30.214844 37.070312 C 28.224083 36.471085 22.622147 34.819329 19.611328 28.177734 C 18.875403 26.556478 18.584258 23.91319 20.089844 21.550781 C 21.052104 20.042063 23.018586 18.990234 25.007812 18.990234 C 26.226965 18.990234 27.407742 19.364157 28.443359 20.083984 C 30.037187 21.192696 30.654198 22.448024 30.896484 23.628906 C 31.138771 24.809789 30.958338 25.925925 30.798828 26.544922 C 30.485246 27.765685 30.092349 28.224917 29.888672 28.478516 A 1.0001 1.0001 0 0 0 29.876953 28.492188 C 29.876953 28.492188 29.837203 28.540638 29.769531 28.630859 A 1.0001 1.0001 0 0 0 29.892578 29.964844 C 29.994703 30.059114 30.101394 30.138313 30.234375 30.220703 L 30.494141 30.382812 C 31.89714 31.260141 34.564647 32 37.228516 32 C 39.265031 32 41.905546 31.598606 44.257812 29.244141 C 46.315041 27.184681 46.95115 24.654723 46.986328 22.517578 C 47.021508 20.380433 46.492284 18.595184 46.201172 17.765625 C 45.200775 14.916298 41.044078 5.6028669 29.570312 3.4082031 C 28.166432 3.1391522 26.731135 3.0039063 25.298828 3.0039062 z M 25.298828 5.0039062 C 26.604522 5.0039062 27.917194 5.1280978 29.195312 5.3730469 C 39.731549 7.3883831 43.43085 15.911061 44.314453 18.427734 C 44.555341 19.114175 45.01565 20.70302 44.986328 22.484375 C 44.957008 24.26573 44.474522 26.197538 42.84375 27.830078 C 40.918016 29.757612 39.042 30 37.228516 30 C 35.164985 30 32.823926 29.278297 31.890625 28.808594 C 32.182948 28.353666 32.475959 28.056575 32.736328 27.042969 C 32.945824 26.229966 33.184182 24.82868 32.855469 23.226562 C 32.760432 22.763362 32.606877 22.283566 32.398438 21.802734 L 32.404297 21.800781 C 30.768224 17.032303 25.354624 13.00581 19.351562 12.181641 C 15.121889 11.600943 10.560867 12.783175 6.9902344 16.541016 C 10.372916 9.4262962 17.25319 5.0039062 25.298828 5.0039062 z M 17.095703 14.027344 C 17.75814 14.025322 18.420008 14.071756 19.078125 14.162109 C 21.658577 14.516383 24.14244 15.613698 26.160156 17.080078 C 25.780038 17.023802 25.395192 16.990234 25.007812 16.990234 C 23.253521 16.990234 21.554269 17.56994 20.199219 18.576172 L 20.197266 18.574219 C 20.128754 18.625932 20.069385 18.680351 20.001953 18.732422 C 19.868566 18.838486 19.731062 18.940022 19.605469 19.054688 C 12.964173 24.426599 11.847294 31.561434 14.113281 37.175781 C 15.26208 40.022114 17.251762 42.500129 19.755859 44.224609 C 17.557161 43.625598 15.997315 42.848956 15.417969 42.525391 C 9.4008494 39.169326 4.2750078 31.559839 5.1015625 23.144531 C 7.9813462 16.409317 12.528109 14.041284 17.095703 14.027344 z M 17.025391 24.808594 C 16.944817 26.383925 17.269844 27.855758 17.791016 29.003906 C 21.142197 36.396311 27.649432 38.385604 29.638672 38.984375 C 31.180568 39.448251 33.047691 39.6875 34.964844 39.6875 C 36.432658 39.6875 37.773139 39.503151 39.013672 39.234375 C 35.428739 42.670181 31.755119 44.177609 28.554688 44.728516 C 22.9956 45.119483 17.989269 41.431942 15.96875 36.425781 C 14.5327 32.867737 14.563057 28.702078 17.025391 24.808594 z"/></svg>